<?xml version="1.0" encoding="UTF-8"?>
<svg width="37px" height="25px" viewBox="0 0 37 25" version="1.1" xmlns="http://www.w3.org/2000/svg" xmlns:xlink="http://www.w3.org/1999/xlink">
    <title>discorde</title>
    <g id="Symbols" stroke="none" stroke-width="1" fill="none" fill-rule="evenodd">
        <g id="Footer" transform="translate(-1464.000000, -12.000000)" fill="#FFFFFF" fill-rule="nonzero">
            <g id="discorde" transform="translate(1464.000000, 12.000000)">
                <path d="M31.7468249,3.16965913 C27.6876595,0.186991614 23.9052554,0.0477230916 23.1902888,0.0477230916 L22.72902,0.500345789 C27.9067622,1.98587669 30.4091454,4.30701873 30.4091454,4.30701873 C16.9055014,-2.37787034 5.76585996,4.08651024 5.51216212,4.14453879 C5.51216212,4.14453879 8.01454534,1.66091681 13.5267075,0.337865846 L13.1922876,0.00130025085 C13.1922876,0.00130025085 9.01780498,-0.161179692 4.50890249,3.14644771 L4.50890249,3.14644771 C4.50890249,3.14644771 0,10.9338792 0,20.5318016 C0,20.5318016 2.50238322,24.8375201 9.35222485,25 C9.35222485,25 10.3554845,23.676949 11.3702758,22.516378 C7.51868139,21.355807 6.0195578,19.034665 6.0195578,19.034665 C6.0195578,19.034665 6.35397767,19.1971449 6.86137335,19.5337105 L7.01128571,19.5337105 C7.09200775,19.5337105 7.12660291,19.5685276 7.16119807,19.6033448 L7.16119807,19.6149505 C7.19579323,19.6497676 7.23038839,19.6845847 7.31111043,19.6845847 C15.4986316,23.0270293 22.3369415,23.8046119 30.1439159,18.8489736 C30.1439159,18.8489736 28.6447923,21.1701156 24.6317537,22.3306867 C25.4620376,23.479652 26.6152096,24.8027029 26.6152096,24.8027029 C33.4765829,24.6518287 36.1404102,20.3461102 36.2903226,20.5318016 C36.2787909,10.9686964 31.7468249,3.16965913 31.7468249,3.16965913 Z M12.3620038,17.5491341 C10.6091823,17.5491341 9.19078077,16.0636032 9.19078077,14.2415067 C9.19078077,12.4078044 10.620714,10.9338792 12.3620038,10.9338792 L12.3735355,10.9222735 C14.1263569,10.9222735 15.5332267,12.4078044 15.5332267,14.2299009 C15.5332267,16.0636032 14.1148252,17.5491341 12.3620038,17.5491341 Z M23.7207479,17.5491341 C21.9679264,17.5491341 20.5495249,16.0636032 20.5495249,14.2415067 C20.5495249,12.4078044 21.9794582,10.9338792 23.7207479,10.9338792 L23.7207479,10.9222735 C25.4735693,10.9222735 26.8919708,12.4078044 26.8919708,14.2299009 C26.8919708,16.0636032 25.4735693,17.5491341 23.7207479,17.5491341 Z" id="Shape"></path>
            </g>
        </g>
    </g>
</svg>